<svg xmlns="http://www.w3.org/2000/svg" width="256" height="256" viewBox="0 0 256 256">
  <defs>
    <linearGradient id="g" x1="0" x2="1" y1="0" y2="1">
      <stop offset="0" stop-color="#7dd3fc"/>
      <stop offset="1" stop-color="#22d3ee"/>
    </linearGradient>
  </defs>
  <rect rx="56" ry="56" x="8" y="8" width="240" height="240" fill="#0f172a" />
  <g fill="url(#g)">
    <path d="M76 76h56a20 20 0 0 1 20 20v64a20 20 0 0 1-20 20H76a20 20 0 0 1-20-20V96a20 20 0 0 1 20-20zm12 24v56h56v-56H88z"/>
    <circle cx="168" cy="96" r="20"/>
    <path d="M156 156h24v24h-24z"/>
  </g>
</svg>
